<svg width="25" height="63" viewBox="0 0 25 63" fill="none" xmlns="http://www.w3.org/2000/svg">
<path d="M12.8735 4.54993C12.3521 4.54993 11.9333 4.01999 11.9333 3.35999V1.18994C11.9333 0.529941 12.3521 0 12.8735 0C13.395 0 13.8137 0.529941 13.8137 1.18994V3.35999C13.8137 4.01999 13.395 4.54993 12.8735 4.54993Z" fill="#883F1E"/>
<path d="M18.8718 49.0901L24.8686 62.2401H0.881104L6.87789 49.0901L12.2506 37.3201V32.2201L9.37474 28.5801C9.12981 28.2701 9.12981 27.7701 9.37474 27.4601C9.49326 27.3101 9.65904 27.2301 9.81706 27.2301C9.97508 27.2301 10.141 27.3101 10.2596 27.4601L12.2506 29.9801V26.1901L9.37474 22.55C9.12981 22.24 9.12981 21.7401 9.37474 21.4301C9.49326 21.2801 9.65904 21.2001 9.81706 21.2001C9.97508 21.2001 10.141 21.2801 10.2596 21.4301L12.2506 23.9501V20.1602L9.37474 16.5201C9.12981 16.2101 9.12981 15.7101 9.37474 15.4001C9.49326 15.2501 9.65904 15.17 9.81706 15.17C9.97508 15.17 10.141 15.2501 10.2596 15.4001L12.2506 17.92V14.1301L9.37474 10.4901C9.12981 10.1801 9.12981 9.68012 9.37474 9.37012C9.49326 9.22012 9.65904 9.14014 9.81706 9.14014C9.97508 9.14014 10.141 9.22012 10.2596 9.37012L12.2506 11.8901V7.70007C12.2506 7.70007 12.2269 7.68004 12.2111 7.67004L9.58018 4.34009C9.21673 3.88009 9.21673 3.12016 9.58018 2.66016C9.7619 2.43016 10.0067 2.31006 10.2437 2.31006C10.4808 2.31006 10.7258 2.43016 10.9075 2.66016L12.8749 5.15015L14.8422 2.66016C15.0239 2.43016 15.2689 2.31006 15.506 2.31006C15.743 2.31006 15.9878 2.43016 16.1695 2.66016C16.533 3.12016 16.533 3.88009 16.1695 4.34009L13.5386 7.67004C13.5386 7.67004 13.5149 7.69007 13.4991 7.70007V11.8901L15.4902 9.37012C15.6087 9.22012 15.7744 9.14014 15.9325 9.14014C16.0905 9.14014 16.2565 9.22012 16.375 9.37012C16.6199 9.68012 16.6199 10.1801 16.375 10.4901L13.4991 14.1301V17.92L15.4902 15.4001C15.6087 15.2501 15.7744 15.17 15.9325 15.17C16.0905 15.17 16.2565 15.2501 16.375 15.4001C16.6199 15.7101 16.6199 16.2101 16.375 16.5201L13.4991 20.1602V23.9501L15.4902 21.4301C15.6087 21.2801 15.7744 21.2001 15.9325 21.2001C16.0905 21.2001 16.2565 21.2801 16.375 21.4301C16.6199 21.7401 16.6199 22.24 16.375 22.55L13.4991 26.1901V29.9801L15.4902 27.4601C15.6087 27.3101 15.7744 27.2301 15.9325 27.2301C16.0905 27.2301 16.2565 27.3101 16.375 27.4601C16.6199 27.7701 16.6199 28.2701 16.375 28.5801L13.4991 32.2201V37.3201L18.8718 49.0901Z" fill="#883F1E"/>
</svg>
